<mxfile host="Electron" modified="2023-11-29T13:14:00.804Z" agent="Mozilla/5.0 (Windows NT 10.0; Win64; x64) AppleWebKit/537.36 (KHTML, like Gecko) draw.io/22.1.2 Chrome/114.0.5735.289 Electron/25.9.4 Safari/537.36" etag="hbr-HaSGCCnDDisSBtxr" version="22.1.2" type="device" pages="2">
  <diagram name="Sayfa -1" id="ebmyYzNlTBDFCyrHB8a2">
    <mxGraphModel dx="2885" dy="2349" grid="1" gridSize="10" guides="1" tooltips="1" connect="1" arrows="1" fold="1" page="1" pageScale="1" pageWidth="827" pageHeight="1169" math="0" shadow="0">
      <root>
        <mxCell id="0" />
        <mxCell id="1" parent="0" />
        <mxCell id="DEbMD9A_J98vYQJ733H8-2" value="Ogrenci" style="whiteSpace=wrap;html=1;align=center;" parent="1" vertex="1">
          <mxGeometry x="10" y="250" width="100" height="40" as="geometry" />
        </mxCell>
        <mxCell id="DEbMD9A_J98vYQJ733H8-4" value="Veli" style="shape=ext;margin=3;double=1;whiteSpace=wrap;html=1;align=center;" parent="1" vertex="1">
          <mxGeometry x="10" y="-80" width="100" height="40" as="geometry" />
        </mxCell>
        <mxCell id="DEbMD9A_J98vYQJ733H8-5" value="Ders" style="whiteSpace=wrap;html=1;align=center;" parent="1" vertex="1">
          <mxGeometry x="470" y="250" width="100" height="40" as="geometry" />
        </mxCell>
        <mxCell id="DEbMD9A_J98vYQJ733H8-6" value="Gider" style="whiteSpace=wrap;html=1;align=center;" parent="1" vertex="1">
          <mxGeometry x="840" y="10" width="100" height="40" as="geometry" />
        </mxCell>
        <mxCell id="DEbMD9A_J98vYQJ733H8-7" value="Malzeme" style="whiteSpace=wrap;html=1;align=center;" parent="1" vertex="1">
          <mxGeometry x="890" y="250" width="100" height="40" as="geometry" />
        </mxCell>
        <mxCell id="DEbMD9A_J98vYQJ733H8-8" value="Calisan" style="whiteSpace=wrap;html=1;align=center;" parent="1" vertex="1">
          <mxGeometry x="614" y="710" width="100" height="40" as="geometry" />
        </mxCell>
        <mxCell id="DEbMD9A_J98vYQJ733H8-9" value="Ogretmen" style="whiteSpace=wrap;html=1;align=center;" parent="1" vertex="1">
          <mxGeometry x="470" y="510" width="100" height="40" as="geometry" />
        </mxCell>
        <mxCell id="DEbMD9A_J98vYQJ733H8-10" value="Idari Personel" style="whiteSpace=wrap;html=1;align=center;" parent="1" vertex="1">
          <mxGeometry x="760" y="508" width="100" height="40" as="geometry" />
        </mxCell>
        <mxCell id="DEbMD9A_J98vYQJ733H8-11" value="Temizlik Gorevlisi" style="whiteSpace=wrap;html=1;align=center;" parent="1" vertex="1">
          <mxGeometry x="614" y="480" width="100" height="40" as="geometry" />
        </mxCell>
        <mxCell id="DEbMD9A_J98vYQJ733H8-13" value="d" style="ellipse;whiteSpace=wrap;html=1;" parent="1" vertex="1">
          <mxGeometry x="654" y="610" width="20" height="20" as="geometry" />
        </mxCell>
        <mxCell id="DEbMD9A_J98vYQJ733H8-14" value="" style="endArrow=none;html=1;rounded=0;" parent="1" source="DEbMD9A_J98vYQJ733H8-9" target="DEbMD9A_J98vYQJ733H8-13" edge="1">
          <mxGeometry width="50" height="50" relative="1" as="geometry">
            <mxPoint x="604" y="670" as="sourcePoint" />
            <mxPoint x="654" y="620" as="targetPoint" />
          </mxGeometry>
        </mxCell>
        <mxCell id="DEbMD9A_J98vYQJ733H8-15" value="" style="endArrow=none;html=1;rounded=0;" parent="1" source="DEbMD9A_J98vYQJ733H8-10" target="DEbMD9A_J98vYQJ733H8-13" edge="1">
          <mxGeometry width="50" height="50" relative="1" as="geometry">
            <mxPoint x="614" y="680" as="sourcePoint" />
            <mxPoint x="664" y="630" as="targetPoint" />
          </mxGeometry>
        </mxCell>
        <mxCell id="DEbMD9A_J98vYQJ733H8-16" value="" style="endArrow=none;html=1;rounded=0;" parent="1" source="DEbMD9A_J98vYQJ733H8-11" target="DEbMD9A_J98vYQJ733H8-13" edge="1">
          <mxGeometry width="50" height="50" relative="1" as="geometry">
            <mxPoint x="624" y="670" as="sourcePoint" />
            <mxPoint x="674" y="620" as="targetPoint" />
          </mxGeometry>
        </mxCell>
        <mxCell id="DEbMD9A_J98vYQJ733H8-17" value="OgrenciId" style="ellipse;whiteSpace=wrap;html=1;align=center;fontStyle=4;" parent="1" vertex="1">
          <mxGeometry x="-180" y="130" width="100" height="40" as="geometry" />
        </mxCell>
        <mxCell id="DEbMD9A_J98vYQJ733H8-18" value="Ad" style="ellipse;whiteSpace=wrap;html=1;align=center;" parent="1" vertex="1">
          <mxGeometry x="-180" y="180" width="100" height="40" as="geometry" />
        </mxCell>
        <mxCell id="DEbMD9A_J98vYQJ733H8-19" value="Soyad" style="ellipse;whiteSpace=wrap;html=1;align=center;" parent="1" vertex="1">
          <mxGeometry x="-190" y="280" width="100" height="40" as="geometry" />
        </mxCell>
        <mxCell id="DEbMD9A_J98vYQJ733H8-20" value="Dogum_Tarihi" style="ellipse;whiteSpace=wrap;html=1;align=center;" parent="1" vertex="1">
          <mxGeometry x="-180" y="330" width="100" height="40" as="geometry" />
        </mxCell>
        <mxCell id="DEbMD9A_J98vYQJ733H8-21" value="Adres" style="ellipse;whiteSpace=wrap;html=1;align=center;" parent="1" vertex="1">
          <mxGeometry x="-160" y="80" width="100" height="40" as="geometry" />
        </mxCell>
        <mxCell id="DEbMD9A_J98vYQJ733H8-22" value="Kayit_Tarihi" style="ellipse;whiteSpace=wrap;html=1;align=center;" parent="1" vertex="1">
          <mxGeometry x="-180" y="380" width="100" height="40" as="geometry" />
        </mxCell>
        <mxCell id="DEbMD9A_J98vYQJ733H8-23" value="Akitf_mi" style="ellipse;whiteSpace=wrap;html=1;align=center;" parent="1" vertex="1">
          <mxGeometry x="-190" y="230" width="100" height="40" as="geometry" />
        </mxCell>
        <mxCell id="DEbMD9A_J98vYQJ733H8-24" value="" style="endArrow=none;html=1;rounded=0;entryX=0.25;entryY=0;entryDx=0;entryDy=0;" parent="1" source="DEbMD9A_J98vYQJ733H8-21" target="DEbMD9A_J98vYQJ733H8-2" edge="1">
          <mxGeometry width="50" height="50" relative="1" as="geometry">
            <mxPoint x="-80" y="140" as="sourcePoint" />
            <mxPoint x="-30" y="90" as="targetPoint" />
          </mxGeometry>
        </mxCell>
        <mxCell id="DEbMD9A_J98vYQJ733H8-25" value="" style="endArrow=none;html=1;rounded=0;" parent="1" source="DEbMD9A_J98vYQJ733H8-17" target="DEbMD9A_J98vYQJ733H8-2" edge="1">
          <mxGeometry width="50" height="50" relative="1" as="geometry">
            <mxPoint x="-60" y="310" as="sourcePoint" />
            <mxPoint x="-10" y="260" as="targetPoint" />
          </mxGeometry>
        </mxCell>
        <mxCell id="DEbMD9A_J98vYQJ733H8-26" value="" style="endArrow=none;html=1;rounded=0;" parent="1" source="DEbMD9A_J98vYQJ733H8-18" target="DEbMD9A_J98vYQJ733H8-2" edge="1">
          <mxGeometry width="50" height="50" relative="1" as="geometry">
            <mxPoint x="-80" y="250" as="sourcePoint" />
            <mxPoint x="-30" y="200" as="targetPoint" />
          </mxGeometry>
        </mxCell>
        <mxCell id="DEbMD9A_J98vYQJ733H8-27" value="" style="endArrow=none;html=1;rounded=0;" parent="1" source="DEbMD9A_J98vYQJ733H8-23" target="DEbMD9A_J98vYQJ733H8-2" edge="1">
          <mxGeometry width="50" height="50" relative="1" as="geometry">
            <mxPoint x="-50" y="340" as="sourcePoint" />
            <mxPoint y="290" as="targetPoint" />
          </mxGeometry>
        </mxCell>
        <mxCell id="DEbMD9A_J98vYQJ733H8-28" value="" style="endArrow=none;html=1;rounded=0;" parent="1" source="DEbMD9A_J98vYQJ733H8-19" target="DEbMD9A_J98vYQJ733H8-2" edge="1">
          <mxGeometry width="50" height="50" relative="1" as="geometry">
            <mxPoint x="320" y="340" as="sourcePoint" />
            <mxPoint x="370" y="290" as="targetPoint" />
          </mxGeometry>
        </mxCell>
        <mxCell id="DEbMD9A_J98vYQJ733H8-29" value="" style="endArrow=none;html=1;rounded=0;" parent="1" source="DEbMD9A_J98vYQJ733H8-20" target="DEbMD9A_J98vYQJ733H8-2" edge="1">
          <mxGeometry width="50" height="50" relative="1" as="geometry">
            <mxPoint x="320" y="340" as="sourcePoint" />
            <mxPoint x="370" y="290" as="targetPoint" />
          </mxGeometry>
        </mxCell>
        <mxCell id="DEbMD9A_J98vYQJ733H8-30" value="" style="endArrow=none;html=1;rounded=0;" parent="1" source="DEbMD9A_J98vYQJ733H8-22" target="DEbMD9A_J98vYQJ733H8-2" edge="1">
          <mxGeometry width="50" height="50" relative="1" as="geometry">
            <mxPoint x="-70" y="400" as="sourcePoint" />
            <mxPoint x="-20" y="350" as="targetPoint" />
          </mxGeometry>
        </mxCell>
        <mxCell id="DEbMD9A_J98vYQJ733H8-31" value="Velisidir" style="shape=rhombus;double=1;perimeter=rhombusPerimeter;whiteSpace=wrap;html=1;align=center;" parent="1" vertex="1">
          <mxGeometry y="50" width="120" height="60" as="geometry" />
        </mxCell>
        <mxCell id="DEbMD9A_J98vYQJ733H8-34" value="Ad" style="ellipse;whiteSpace=wrap;html=1;align=center;" parent="1" vertex="1">
          <mxGeometry x="-110" y="-150" width="100" height="40" as="geometry" />
        </mxCell>
        <mxCell id="DEbMD9A_J98vYQJ733H8-35" value="Soyad" style="ellipse;whiteSpace=wrap;html=1;align=center;" parent="1" vertex="1">
          <mxGeometry x="10" y="-170" width="100" height="40" as="geometry" />
        </mxCell>
        <mxCell id="DEbMD9A_J98vYQJ733H8-36" value="" style="endArrow=none;html=1;rounded=0;" parent="1" source="DEbMD9A_J98vYQJ733H8-4" target="DEbMD9A_J98vYQJ733H8-34" edge="1">
          <mxGeometry width="50" height="50" relative="1" as="geometry">
            <mxPoint x="320" y="100" as="sourcePoint" />
            <mxPoint x="370" y="50" as="targetPoint" />
          </mxGeometry>
        </mxCell>
        <mxCell id="DEbMD9A_J98vYQJ733H8-37" value="" style="endArrow=none;html=1;rounded=0;" parent="1" source="DEbMD9A_J98vYQJ733H8-4" target="DEbMD9A_J98vYQJ733H8-35" edge="1">
          <mxGeometry width="50" height="50" relative="1" as="geometry">
            <mxPoint x="320" y="100" as="sourcePoint" />
            <mxPoint x="370" y="50" as="targetPoint" />
          </mxGeometry>
        </mxCell>
        <mxCell id="DEbMD9A_J98vYQJ733H8-38" value="" style="shape=link;html=1;rounded=0;" parent="1" source="DEbMD9A_J98vYQJ733H8-2" target="DEbMD9A_J98vYQJ733H8-31" edge="1">
          <mxGeometry relative="1" as="geometry">
            <mxPoint x="270" y="80" as="sourcePoint" />
            <mxPoint x="430" y="80" as="targetPoint" />
          </mxGeometry>
        </mxCell>
        <mxCell id="DEbMD9A_J98vYQJ733H8-39" value="1" style="resizable=0;html=1;whiteSpace=wrap;align=right;verticalAlign=bottom;" parent="DEbMD9A_J98vYQJ733H8-38" connectable="0" vertex="1">
          <mxGeometry x="1" relative="1" as="geometry">
            <mxPoint x="-10" y="20" as="offset" />
          </mxGeometry>
        </mxCell>
        <mxCell id="DEbMD9A_J98vYQJ733H8-40" value="" style="shape=link;html=1;rounded=0;" parent="1" source="DEbMD9A_J98vYQJ733H8-31" target="DEbMD9A_J98vYQJ733H8-4" edge="1">
          <mxGeometry relative="1" as="geometry">
            <mxPoint x="60" y="60" as="sourcePoint" />
            <mxPoint x="59.71" y="-40" as="targetPoint" />
            <Array as="points">
              <mxPoint x="59.71" />
            </Array>
          </mxGeometry>
        </mxCell>
        <mxCell id="DEbMD9A_J98vYQJ733H8-41" value="1" style="resizable=0;html=1;whiteSpace=wrap;align=right;verticalAlign=bottom;" parent="DEbMD9A_J98vYQJ733H8-40" connectable="0" vertex="1">
          <mxGeometry x="1" relative="1" as="geometry">
            <mxPoint x="-10" y="90" as="offset" />
          </mxGeometry>
        </mxCell>
        <mxCell id="DEbMD9A_J98vYQJ733H8-42" value="Telefon_No" style="ellipse;whiteSpace=wrap;html=1;align=center;" parent="1" vertex="1">
          <mxGeometry x="120" y="-150" width="100" height="40" as="geometry" />
        </mxCell>
        <mxCell id="DEbMD9A_J98vYQJ733H8-44" value="" style="endArrow=none;html=1;rounded=0;" parent="1" source="DEbMD9A_J98vYQJ733H8-4" target="qvJ3SiK5ThVEvk8zJM0f-5" edge="1">
          <mxGeometry width="50" height="50" relative="1" as="geometry">
            <mxPoint x="350" y="80" as="sourcePoint" />
            <mxPoint x="172.27600109824857" y="-74.03450013728116" as="targetPoint" />
          </mxGeometry>
        </mxCell>
        <mxCell id="DEbMD9A_J98vYQJ733H8-46" value="" style="endArrow=none;html=1;rounded=0;" parent="1" source="DEbMD9A_J98vYQJ733H8-4" target="DEbMD9A_J98vYQJ733H8-42" edge="1">
          <mxGeometry width="50" height="50" relative="1" as="geometry">
            <mxPoint x="350" y="80" as="sourcePoint" />
            <mxPoint x="400" y="30" as="targetPoint" />
          </mxGeometry>
        </mxCell>
        <mxCell id="DEbMD9A_J98vYQJ733H8-47" value="&lt;span style=&quot;border-bottom: 1px dotted&quot;&gt;VeliId&lt;/span&gt;" style="ellipse;whiteSpace=wrap;html=1;align=center;" parent="1" vertex="1">
          <mxGeometry x="-160" y="-100" width="100" height="40" as="geometry" />
        </mxCell>
        <mxCell id="DEbMD9A_J98vYQJ733H8-48" value="" style="endArrow=none;html=1;rounded=0;" parent="1" source="DEbMD9A_J98vYQJ733H8-47" target="DEbMD9A_J98vYQJ733H8-4" edge="1">
          <mxGeometry width="50" height="50" relative="1" as="geometry">
            <mxPoint x="350" y="220" as="sourcePoint" />
            <mxPoint x="400" y="170" as="targetPoint" />
          </mxGeometry>
        </mxCell>
        <mxCell id="DEbMD9A_J98vYQJ733H8-49" value="Alir" style="shape=rhombus;perimeter=rhombusPerimeter;whiteSpace=wrap;html=1;align=center;" parent="1" vertex="1">
          <mxGeometry x="210" y="240" width="120" height="60" as="geometry" />
        </mxCell>
        <mxCell id="DEbMD9A_J98vYQJ733H8-50" value="Verir" style="shape=rhombus;perimeter=rhombusPerimeter;whiteSpace=wrap;html=1;align=center;" parent="1" vertex="1">
          <mxGeometry x="460" y="350" width="120" height="60" as="geometry" />
        </mxCell>
        <mxCell id="DEbMD9A_J98vYQJ733H8-51" value="DersAdi" style="ellipse;whiteSpace=wrap;html=1;align=center;" parent="1" vertex="1">
          <mxGeometry x="440" y="10" width="100" height="40" as="geometry" />
        </mxCell>
        <mxCell id="DEbMD9A_J98vYQJ733H8-52" value="DersID" style="ellipse;whiteSpace=wrap;html=1;align=center;fontStyle=4;" parent="1" vertex="1">
          <mxGeometry x="545" width="100" height="40" as="geometry" />
        </mxCell>
        <mxCell id="DEbMD9A_J98vYQJ733H8-55" value="Ders_Saati" style="ellipse;whiteSpace=wrap;html=1;align=center;" parent="1" vertex="1">
          <mxGeometry x="350" y="60" width="100" height="40" as="geometry" />
        </mxCell>
        <mxCell id="DEbMD9A_J98vYQJ733H8-59" value="" style="endArrow=none;html=1;rounded=0;" parent="1" source="DEbMD9A_J98vYQJ733H8-5" target="DEbMD9A_J98vYQJ733H8-51" edge="1">
          <mxGeometry width="50" height="50" relative="1" as="geometry">
            <mxPoint x="350" y="290" as="sourcePoint" />
            <mxPoint x="400" y="240" as="targetPoint" />
          </mxGeometry>
        </mxCell>
        <mxCell id="DEbMD9A_J98vYQJ733H8-61" value="" style="endArrow=none;html=1;rounded=0;" parent="1" source="DEbMD9A_J98vYQJ733H8-5" target="DEbMD9A_J98vYQJ733H8-52" edge="1">
          <mxGeometry width="50" height="50" relative="1" as="geometry">
            <mxPoint x="350" y="150" as="sourcePoint" />
            <mxPoint x="400" y="100" as="targetPoint" />
          </mxGeometry>
        </mxCell>
        <mxCell id="DEbMD9A_J98vYQJ733H8-62" value="" style="endArrow=none;html=1;rounded=0;" parent="1" source="DEbMD9A_J98vYQJ733H8-5" target="DEbMD9A_J98vYQJ733H8-55" edge="1">
          <mxGeometry width="50" height="50" relative="1" as="geometry">
            <mxPoint x="350" y="150" as="sourcePoint" />
            <mxPoint x="400" y="100" as="targetPoint" />
          </mxGeometry>
        </mxCell>
        <mxCell id="DEbMD9A_J98vYQJ733H8-68" value="" style="shape=link;html=1;rounded=0;" parent="1" source="DEbMD9A_J98vYQJ733H8-5" target="DEbMD9A_J98vYQJ733H8-49" edge="1">
          <mxGeometry relative="1" as="geometry">
            <mxPoint x="300" y="330" as="sourcePoint" />
            <mxPoint x="460" y="330" as="targetPoint" />
          </mxGeometry>
        </mxCell>
        <mxCell id="DEbMD9A_J98vYQJ733H8-69" value="M" style="resizable=0;html=1;whiteSpace=wrap;align=right;verticalAlign=bottom;" parent="DEbMD9A_J98vYQJ733H8-68" connectable="0" vertex="1">
          <mxGeometry x="1" relative="1" as="geometry" />
        </mxCell>
        <mxCell id="DEbMD9A_J98vYQJ733H8-70" value="" style="endArrow=none;html=1;rounded=0;" parent="1" source="DEbMD9A_J98vYQJ733H8-2" target="DEbMD9A_J98vYQJ733H8-49" edge="1">
          <mxGeometry relative="1" as="geometry">
            <mxPoint x="300" y="330" as="sourcePoint" />
            <mxPoint x="460" y="330" as="targetPoint" />
          </mxGeometry>
        </mxCell>
        <mxCell id="DEbMD9A_J98vYQJ733H8-71" value="N" style="resizable=0;html=1;whiteSpace=wrap;align=right;verticalAlign=bottom;" parent="DEbMD9A_J98vYQJ733H8-70" connectable="0" vertex="1">
          <mxGeometry x="1" relative="1" as="geometry" />
        </mxCell>
        <mxCell id="DEbMD9A_J98vYQJ733H8-73" value="Talep" style="ellipse;whiteSpace=wrap;html=1;align=center;" parent="1" vertex="1">
          <mxGeometry x="595" y="50" width="100" height="40" as="geometry" />
        </mxCell>
        <mxCell id="DEbMD9A_J98vYQJ733H8-74" value="" style="endArrow=none;html=1;rounded=0;" parent="1" source="DEbMD9A_J98vYQJ733H8-5" target="DEbMD9A_J98vYQJ733H8-73" edge="1">
          <mxGeometry width="50" height="50" relative="1" as="geometry">
            <mxPoint x="350" y="330" as="sourcePoint" />
            <mxPoint x="400" y="280" as="targetPoint" />
          </mxGeometry>
        </mxCell>
        <mxCell id="DEbMD9A_J98vYQJ733H8-76" value="ogrenciId" style="text;html=1;align=center;verticalAlign=middle;resizable=0;points=[];autosize=1;strokeColor=none;fillColor=none;" parent="1" vertex="1">
          <mxGeometry x="195" y="298" width="70" height="30" as="geometry" />
        </mxCell>
        <mxCell id="DEbMD9A_J98vYQJ733H8-77" value="Dersid" style="text;html=1;align=center;verticalAlign=middle;resizable=0;points=[];autosize=1;strokeColor=none;fillColor=none;" parent="1" vertex="1">
          <mxGeometry x="280" y="298" width="60" height="30" as="geometry" />
        </mxCell>
        <mxCell id="DEbMD9A_J98vYQJ733H8-99" value="GiderTuru" style="ellipse;whiteSpace=wrap;html=1;align=center;" parent="1" vertex="1">
          <mxGeometry x="770" y="-120" width="100" height="40" as="geometry" />
        </mxCell>
        <mxCell id="DEbMD9A_J98vYQJ733H8-100" value="GiderID" style="ellipse;whiteSpace=wrap;html=1;align=center;fontStyle=4;" parent="1" vertex="1">
          <mxGeometry x="890" y="-120" width="100" height="40" as="geometry" />
        </mxCell>
        <mxCell id="DEbMD9A_J98vYQJ733H8-102" value="Tutar" style="ellipse;whiteSpace=wrap;html=1;align=center;" parent="1" vertex="1">
          <mxGeometry x="990" y="-90" width="100" height="40" as="geometry" />
        </mxCell>
        <mxCell id="DEbMD9A_J98vYQJ733H8-104" value="Tarih" style="ellipse;whiteSpace=wrap;html=1;align=center;" parent="1" vertex="1">
          <mxGeometry x="680" y="-80" width="100" height="40" as="geometry" />
        </mxCell>
        <mxCell id="DEbMD9A_J98vYQJ733H8-105" value="" style="endArrow=none;html=1;rounded=0;" parent="1" source="DEbMD9A_J98vYQJ733H8-6" target="DEbMD9A_J98vYQJ733H8-104" edge="1">
          <mxGeometry width="50" height="50" relative="1" as="geometry">
            <mxPoint x="420" y="190" as="sourcePoint" />
            <mxPoint x="470" y="140" as="targetPoint" />
          </mxGeometry>
        </mxCell>
        <mxCell id="DEbMD9A_J98vYQJ733H8-106" value="" style="endArrow=none;html=1;rounded=0;" parent="1" source="DEbMD9A_J98vYQJ733H8-6" target="DEbMD9A_J98vYQJ733H8-99" edge="1">
          <mxGeometry width="50" height="50" relative="1" as="geometry">
            <mxPoint x="420" y="190" as="sourcePoint" />
            <mxPoint x="470" y="140" as="targetPoint" />
          </mxGeometry>
        </mxCell>
        <mxCell id="DEbMD9A_J98vYQJ733H8-107" value="" style="endArrow=none;html=1;rounded=0;" parent="1" source="DEbMD9A_J98vYQJ733H8-6" target="DEbMD9A_J98vYQJ733H8-100" edge="1">
          <mxGeometry width="50" height="50" relative="1" as="geometry">
            <mxPoint x="900" y="190" as="sourcePoint" />
            <mxPoint x="950" y="140" as="targetPoint" />
          </mxGeometry>
        </mxCell>
        <mxCell id="DEbMD9A_J98vYQJ733H8-108" value="" style="endArrow=none;html=1;rounded=0;" parent="1" source="DEbMD9A_J98vYQJ733H8-6" target="DEbMD9A_J98vYQJ733H8-102" edge="1">
          <mxGeometry width="50" height="50" relative="1" as="geometry">
            <mxPoint x="900" y="190" as="sourcePoint" />
            <mxPoint x="950" y="140" as="targetPoint" />
          </mxGeometry>
        </mxCell>
        <mxCell id="DEbMD9A_J98vYQJ733H8-110" value="MalzemeID" style="ellipse;whiteSpace=wrap;html=1;align=center;fontStyle=4;" parent="1" vertex="1">
          <mxGeometry x="1080" y="340" width="100" height="40" as="geometry" />
        </mxCell>
        <mxCell id="DEbMD9A_J98vYQJ733H8-113" value="Malzeme_Adi" style="ellipse;whiteSpace=wrap;html=1;align=center;" parent="1" vertex="1">
          <mxGeometry x="1080" y="280" width="100" height="40" as="geometry" />
        </mxCell>
        <mxCell id="DEbMD9A_J98vYQJ733H8-114" value="Miktar" style="ellipse;whiteSpace=wrap;html=1;align=center;" parent="1" vertex="1">
          <mxGeometry x="980" y="160" width="100" height="40" as="geometry" />
        </mxCell>
        <mxCell id="DEbMD9A_J98vYQJ733H8-115" value="Minimum_Stok_Miktari" style="ellipse;whiteSpace=wrap;html=1;align=center;" parent="1" vertex="1">
          <mxGeometry x="1100" y="200" width="130" height="50" as="geometry" />
        </mxCell>
        <mxCell id="DEbMD9A_J98vYQJ733H8-116" value="" style="endArrow=none;html=1;rounded=0;" parent="1" source="DEbMD9A_J98vYQJ733H8-7" target="DEbMD9A_J98vYQJ733H8-114" edge="1">
          <mxGeometry width="50" height="50" relative="1" as="geometry">
            <mxPoint x="900" y="190" as="sourcePoint" />
            <mxPoint x="950" y="140" as="targetPoint" />
          </mxGeometry>
        </mxCell>
        <mxCell id="DEbMD9A_J98vYQJ733H8-117" value="" style="endArrow=none;html=1;rounded=0;" parent="1" source="DEbMD9A_J98vYQJ733H8-7" target="DEbMD9A_J98vYQJ733H8-115" edge="1">
          <mxGeometry width="50" height="50" relative="1" as="geometry">
            <mxPoint x="900" y="190" as="sourcePoint" />
            <mxPoint x="950" y="140" as="targetPoint" />
          </mxGeometry>
        </mxCell>
        <mxCell id="DEbMD9A_J98vYQJ733H8-118" value="" style="endArrow=none;html=1;rounded=0;" parent="1" source="DEbMD9A_J98vYQJ733H8-7" target="DEbMD9A_J98vYQJ733H8-113" edge="1">
          <mxGeometry width="50" height="50" relative="1" as="geometry">
            <mxPoint x="900" y="190" as="sourcePoint" />
            <mxPoint x="950" y="140" as="targetPoint" />
          </mxGeometry>
        </mxCell>
        <mxCell id="DEbMD9A_J98vYQJ733H8-119" value="" style="endArrow=none;html=1;rounded=0;" parent="1" source="DEbMD9A_J98vYQJ733H8-7" target="DEbMD9A_J98vYQJ733H8-110" edge="1">
          <mxGeometry width="50" height="50" relative="1" as="geometry">
            <mxPoint x="925.7684615384619" y="230" as="sourcePoint" />
            <mxPoint x="934.23" y="120" as="targetPoint" />
          </mxGeometry>
        </mxCell>
        <mxCell id="DEbMD9A_J98vYQJ733H8-120" value="" style="endArrow=none;html=1;rounded=0;" parent="1" source="DEbMD9A_J98vYQJ733H8-9" target="DEbMD9A_J98vYQJ733H8-50" edge="1">
          <mxGeometry relative="1" as="geometry">
            <mxPoint x="710" y="450" as="sourcePoint" />
            <mxPoint x="870" y="450" as="targetPoint" />
          </mxGeometry>
        </mxCell>
        <mxCell id="DEbMD9A_J98vYQJ733H8-121" value="1" style="resizable=0;html=1;whiteSpace=wrap;align=right;verticalAlign=bottom;" parent="DEbMD9A_J98vYQJ733H8-120" connectable="0" vertex="1">
          <mxGeometry x="1" relative="1" as="geometry">
            <mxPoint y="20" as="offset" />
          </mxGeometry>
        </mxCell>
        <mxCell id="DEbMD9A_J98vYQJ733H8-124" value="" style="shape=link;html=1;rounded=0;" parent="1" source="DEbMD9A_J98vYQJ733H8-5" target="DEbMD9A_J98vYQJ733H8-50" edge="1">
          <mxGeometry relative="1" as="geometry">
            <mxPoint x="710" y="450" as="sourcePoint" />
            <mxPoint x="870" y="450" as="targetPoint" />
          </mxGeometry>
        </mxCell>
        <mxCell id="DEbMD9A_J98vYQJ733H8-125" value="N" style="resizable=0;html=1;whiteSpace=wrap;align=right;verticalAlign=bottom;" parent="DEbMD9A_J98vYQJ733H8-124" connectable="0" vertex="1">
          <mxGeometry x="1" relative="1" as="geometry" />
        </mxCell>
        <mxCell id="DEbMD9A_J98vYQJ733H8-127" value="&lt;font style=&quot;font-size: 19px;&quot;&gt;U&lt;/font&gt;" style="text;html=1;align=center;verticalAlign=middle;resizable=0;points=[];autosize=1;strokeColor=none;fillColor=none;rotation=120;" parent="1" vertex="1">
          <mxGeometry x="590" y="565" width="40" height="40" as="geometry" />
        </mxCell>
        <mxCell id="DEbMD9A_J98vYQJ733H8-130" value="" style="shape=link;html=1;rounded=0;" parent="1" source="DEbMD9A_J98vYQJ733H8-8" target="DEbMD9A_J98vYQJ733H8-13" edge="1">
          <mxGeometry relative="1" as="geometry">
            <mxPoint x="400" y="690" as="sourcePoint" />
            <mxPoint x="560" y="690" as="targetPoint" />
          </mxGeometry>
        </mxCell>
        <mxCell id="DEbMD9A_J98vYQJ733H8-132" value="&lt;font style=&quot;font-size: 19px;&quot;&gt;U&lt;/font&gt;" style="text;html=1;align=center;verticalAlign=middle;resizable=0;points=[];autosize=1;strokeColor=none;fillColor=none;rotation=-115;" parent="1" vertex="1">
          <mxGeometry x="690" y="570" width="40" height="40" as="geometry" />
        </mxCell>
        <mxCell id="DEbMD9A_J98vYQJ733H8-134" value="&lt;font style=&quot;font-size: 19px;&quot;&gt;U&lt;/font&gt;" style="text;html=1;align=center;verticalAlign=middle;resizable=0;points=[];autosize=1;strokeColor=none;fillColor=none;rotation=-180;" parent="1" vertex="1">
          <mxGeometry x="644" y="550" width="40" height="40" as="geometry" />
        </mxCell>
        <mxCell id="DEbMD9A_J98vYQJ733H8-135" value="CalisanID" style="ellipse;whiteSpace=wrap;html=1;align=center;fontStyle=4;" parent="1" vertex="1">
          <mxGeometry x="314" y="750" width="100" height="40" as="geometry" />
        </mxCell>
        <mxCell id="DEbMD9A_J98vYQJ733H8-136" value="Ad" style="ellipse;whiteSpace=wrap;html=1;align=center;" parent="1" vertex="1">
          <mxGeometry x="380" y="810" width="100" height="40" as="geometry" />
        </mxCell>
        <mxCell id="DEbMD9A_J98vYQJ733H8-137" value="Soyad" style="ellipse;whiteSpace=wrap;html=1;align=center;" parent="1" vertex="1">
          <mxGeometry x="590" y="840" width="100" height="40" as="geometry" />
        </mxCell>
        <mxCell id="DEbMD9A_J98vYQJ733H8-138" value="Maas" style="ellipse;whiteSpace=wrap;html=1;align=center;" parent="1" vertex="1">
          <mxGeometry x="714" y="840" width="100" height="40" as="geometry" />
        </mxCell>
        <mxCell id="DEbMD9A_J98vYQJ733H8-139" value="Calisma_Durumu" style="ellipse;whiteSpace=wrap;html=1;align=center;" parent="1" vertex="1">
          <mxGeometry x="470" y="840" width="100" height="40" as="geometry" />
        </mxCell>
        <mxCell id="DEbMD9A_J98vYQJ733H8-140" value="Musaitlik_Zamani" style="ellipse;whiteSpace=wrap;html=1;align=center;" parent="1" vertex="1">
          <mxGeometry x="814" y="820" width="100" height="40" as="geometry" />
        </mxCell>
        <mxCell id="DEbMD9A_J98vYQJ733H8-142" value="" style="endArrow=none;html=1;rounded=0;" parent="1" source="DEbMD9A_J98vYQJ733H8-135" target="DEbMD9A_J98vYQJ733H8-8" edge="1">
          <mxGeometry width="50" height="50" relative="1" as="geometry">
            <mxPoint x="505" y="675" as="sourcePoint" />
            <mxPoint x="555" y="625" as="targetPoint" />
          </mxGeometry>
        </mxCell>
        <mxCell id="DEbMD9A_J98vYQJ733H8-143" value="" style="endArrow=none;html=1;rounded=0;" parent="1" source="DEbMD9A_J98vYQJ733H8-136" target="DEbMD9A_J98vYQJ733H8-8" edge="1">
          <mxGeometry width="50" height="50" relative="1" as="geometry">
            <mxPoint x="630" y="530" as="sourcePoint" />
            <mxPoint x="680" y="480" as="targetPoint" />
          </mxGeometry>
        </mxCell>
        <mxCell id="DEbMD9A_J98vYQJ733H8-144" value="" style="endArrow=none;html=1;rounded=0;" parent="1" source="DEbMD9A_J98vYQJ733H8-139" target="DEbMD9A_J98vYQJ733H8-8" edge="1">
          <mxGeometry width="50" height="50" relative="1" as="geometry">
            <mxPoint x="630" y="530" as="sourcePoint" />
            <mxPoint x="680" y="480" as="targetPoint" />
          </mxGeometry>
        </mxCell>
        <mxCell id="DEbMD9A_J98vYQJ733H8-145" value="" style="endArrow=none;html=1;rounded=0;" parent="1" source="DEbMD9A_J98vYQJ733H8-137" target="DEbMD9A_J98vYQJ733H8-8" edge="1">
          <mxGeometry width="50" height="50" relative="1" as="geometry">
            <mxPoint x="630" y="530" as="sourcePoint" />
            <mxPoint x="680" y="480" as="targetPoint" />
          </mxGeometry>
        </mxCell>
        <mxCell id="DEbMD9A_J98vYQJ733H8-146" value="" style="endArrow=none;html=1;rounded=0;" parent="1" source="DEbMD9A_J98vYQJ733H8-138" target="DEbMD9A_J98vYQJ733H8-8" edge="1">
          <mxGeometry width="50" height="50" relative="1" as="geometry">
            <mxPoint x="630" y="530" as="sourcePoint" />
            <mxPoint x="680" y="480" as="targetPoint" />
          </mxGeometry>
        </mxCell>
        <mxCell id="DEbMD9A_J98vYQJ733H8-147" value="" style="endArrow=none;html=1;rounded=0;" parent="1" source="DEbMD9A_J98vYQJ733H8-140" target="DEbMD9A_J98vYQJ733H8-8" edge="1">
          <mxGeometry width="50" height="50" relative="1" as="geometry">
            <mxPoint x="630" y="530" as="sourcePoint" />
            <mxPoint x="680" y="480" as="targetPoint" />
          </mxGeometry>
        </mxCell>
        <mxCell id="DEbMD9A_J98vYQJ733H8-150" value="Dogum_Tarihi" style="ellipse;whiteSpace=wrap;html=1;align=center;" parent="1" vertex="1">
          <mxGeometry x="930" y="810" width="100" height="40" as="geometry" />
        </mxCell>
        <mxCell id="DEbMD9A_J98vYQJ733H8-151" value="" style="endArrow=none;html=1;rounded=0;" parent="1" source="DEbMD9A_J98vYQJ733H8-8" target="DEbMD9A_J98vYQJ733H8-150" edge="1">
          <mxGeometry width="50" height="50" relative="1" as="geometry">
            <mxPoint x="630" y="670" as="sourcePoint" />
            <mxPoint x="680" y="620" as="targetPoint" />
          </mxGeometry>
        </mxCell>
        <mxCell id="DEbMD9A_J98vYQJ733H8-152" value="Kullanir" style="shape=rhombus;perimeter=rhombusPerimeter;whiteSpace=wrap;html=1;align=center;" parent="1" vertex="1">
          <mxGeometry x="684" y="240" width="120" height="60" as="geometry" />
        </mxCell>
        <mxCell id="DEbMD9A_J98vYQJ733H8-153" value="Fiyati" style="ellipse;whiteSpace=wrap;html=1;align=center;" parent="1" vertex="1">
          <mxGeometry x="990" y="370" width="100" height="40" as="geometry" />
        </mxCell>
        <mxCell id="DEbMD9A_J98vYQJ733H8-154" value="" style="endArrow=none;html=1;rounded=0;" parent="1" source="DEbMD9A_J98vYQJ733H8-5" target="DEbMD9A_J98vYQJ733H8-152" edge="1">
          <mxGeometry relative="1" as="geometry">
            <mxPoint x="650" y="200" as="sourcePoint" />
            <mxPoint x="810" y="200" as="targetPoint" />
          </mxGeometry>
        </mxCell>
        <mxCell id="DEbMD9A_J98vYQJ733H8-155" value="N" style="resizable=0;html=1;whiteSpace=wrap;align=right;verticalAlign=bottom;" parent="DEbMD9A_J98vYQJ733H8-154" connectable="0" vertex="1">
          <mxGeometry x="1" relative="1" as="geometry" />
        </mxCell>
        <mxCell id="DEbMD9A_J98vYQJ733H8-156" value="" style="endArrow=none;html=1;rounded=0;" parent="1" source="DEbMD9A_J98vYQJ733H8-152" target="DEbMD9A_J98vYQJ733H8-7" edge="1">
          <mxGeometry relative="1" as="geometry">
            <mxPoint x="650" y="200" as="sourcePoint" />
            <mxPoint x="810" y="200" as="targetPoint" />
          </mxGeometry>
        </mxCell>
        <mxCell id="DEbMD9A_J98vYQJ733H8-157" value="M" style="resizable=0;html=1;whiteSpace=wrap;align=left;verticalAlign=bottom;" parent="DEbMD9A_J98vYQJ733H8-156" connectable="0" vertex="1">
          <mxGeometry x="-1" relative="1" as="geometry" />
        </mxCell>
        <mxCell id="DEbMD9A_J98vYQJ733H8-160" value="" style="endArrow=none;html=1;rounded=0;" parent="1" source="DEbMD9A_J98vYQJ733H8-7" target="DEbMD9A_J98vYQJ733H8-153" edge="1">
          <mxGeometry width="50" height="50" relative="1" as="geometry">
            <mxPoint x="940" y="630" as="sourcePoint" />
            <mxPoint x="990" y="580" as="targetPoint" />
          </mxGeometry>
        </mxCell>
        <mxCell id="DEbMD9A_J98vYQJ733H8-161" value="Pozisyon" style="ellipse;whiteSpace=wrap;html=1;align=center;" parent="1" vertex="1">
          <mxGeometry x="850" y="573" width="100" height="40" as="geometry" />
        </mxCell>
        <mxCell id="DEbMD9A_J98vYQJ733H8-162" value="" style="endArrow=none;html=1;rounded=0;" parent="1" source="DEbMD9A_J98vYQJ733H8-10" target="DEbMD9A_J98vYQJ733H8-161" edge="1">
          <mxGeometry width="50" height="50" relative="1" as="geometry">
            <mxPoint x="940" y="630" as="sourcePoint" />
            <mxPoint x="990" y="580" as="targetPoint" />
          </mxGeometry>
        </mxCell>
        <mxCell id="-6oYfZfhRDYlc874HenN-1" value="is_pozisyonu" style="text;html=1;align=center;verticalAlign=middle;resizable=0;points=[];autosize=1;strokeColor=none;fillColor=none;" parent="1" vertex="1">
          <mxGeometry x="655" y="638" width="90" height="30" as="geometry" />
        </mxCell>
        <mxCell id="-6oYfZfhRDYlc874HenN-2" value="ogretmen" style="text;html=1;align=center;verticalAlign=middle;resizable=0;points=[];autosize=1;strokeColor=none;fillColor=none;" parent="1" vertex="1">
          <mxGeometry x="535" y="578" width="70" height="30" as="geometry" />
        </mxCell>
        <mxCell id="-6oYfZfhRDYlc874HenN-3" value="yonetim" style="text;html=1;align=center;verticalAlign=middle;resizable=0;points=[];autosize=1;strokeColor=none;fillColor=none;" parent="1" vertex="1">
          <mxGeometry x="720" y="570" width="70" height="30" as="geometry" />
        </mxCell>
        <mxCell id="-6oYfZfhRDYlc874HenN-4" value="temizlik" style="text;html=1;align=center;verticalAlign=middle;resizable=0;points=[];autosize=1;strokeColor=none;fillColor=none;" parent="1" vertex="1">
          <mxGeometry x="610" y="540" width="60" height="30" as="geometry" />
        </mxCell>
        <mxCell id="-6oYfZfhRDYlc874HenN-6" value="is_pozisyonu" style="ellipse;whiteSpace=wrap;html=1;align=center;" parent="1" vertex="1">
          <mxGeometry x="350" y="680" width="100" height="40" as="geometry" />
        </mxCell>
        <mxCell id="-6oYfZfhRDYlc874HenN-7" value="" style="endArrow=none;html=1;rounded=0;" parent="1" source="-6oYfZfhRDYlc874HenN-6" target="DEbMD9A_J98vYQJ733H8-8" edge="1">
          <mxGeometry width="50" height="50" relative="1" as="geometry">
            <mxPoint x="430" y="840" as="sourcePoint" />
            <mxPoint x="480" y="790" as="targetPoint" />
          </mxGeometry>
        </mxCell>
        <mxCell id="qvJ3SiK5ThVEvk8zJM0f-1" value="Email" style="ellipse;whiteSpace=wrap;html=1;align=center;" parent="1" vertex="1">
          <mxGeometry x="-170" y="440" width="100" height="40" as="geometry" />
        </mxCell>
        <mxCell id="qvJ3SiK5ThVEvk8zJM0f-2" value="Musaitlik_Zamani" style="ellipse;shape=doubleEllipse;margin=3;whiteSpace=wrap;html=1;align=center;" parent="1" vertex="1">
          <mxGeometry x="-80" y="470" width="100" height="40" as="geometry" />
        </mxCell>
        <mxCell id="qvJ3SiK5ThVEvk8zJM0f-3" value="" style="endArrow=none;html=1;rounded=0;" parent="1" source="qvJ3SiK5ThVEvk8zJM0f-1" target="DEbMD9A_J98vYQJ733H8-2" edge="1">
          <mxGeometry width="50" height="50" relative="1" as="geometry">
            <mxPoint x="90" y="350" as="sourcePoint" />
            <mxPoint x="140" y="300" as="targetPoint" />
          </mxGeometry>
        </mxCell>
        <mxCell id="qvJ3SiK5ThVEvk8zJM0f-4" value="" style="endArrow=none;html=1;rounded=0;" parent="1" source="qvJ3SiK5ThVEvk8zJM0f-2" target="DEbMD9A_J98vYQJ733H8-2" edge="1">
          <mxGeometry width="50" height="50" relative="1" as="geometry">
            <mxPoint x="90" y="350" as="sourcePoint" />
            <mxPoint x="140" y="300" as="targetPoint" />
          </mxGeometry>
        </mxCell>
        <mxCell id="qvJ3SiK5ThVEvk8zJM0f-5" value="Email" style="ellipse;whiteSpace=wrap;html=1;align=center;" parent="1" vertex="1">
          <mxGeometry x="180" y="-100" width="100" height="40" as="geometry" />
        </mxCell>
        <mxCell id="8XS8EK-ZMGodiM98TFmR-1" value="Telefon" style="ellipse;whiteSpace=wrap;html=1;align=center;" parent="1" vertex="1">
          <mxGeometry x="30" y="460" width="100" height="40" as="geometry" />
        </mxCell>
        <mxCell id="8XS8EK-ZMGodiM98TFmR-2" value="" style="endArrow=none;html=1;rounded=0;" parent="1" source="8XS8EK-ZMGodiM98TFmR-1" target="DEbMD9A_J98vYQJ733H8-2" edge="1">
          <mxGeometry width="50" height="50" relative="1" as="geometry">
            <mxPoint x="60" y="350" as="sourcePoint" />
            <mxPoint x="110" y="300" as="targetPoint" />
          </mxGeometry>
        </mxCell>
        <mxCell id="8XS8EK-ZMGodiM98TFmR-3" value="MusatilikZamani" style="ellipse;shape=doubleEllipse;margin=3;whiteSpace=wrap;html=1;align=center;" parent="1" vertex="1">
          <mxGeometry x="390" y="590" width="100" height="40" as="geometry" />
        </mxCell>
        <mxCell id="8XS8EK-ZMGodiM98TFmR-4" value="" style="endArrow=none;html=1;rounded=0;" parent="1" source="8XS8EK-ZMGodiM98TFmR-3" target="DEbMD9A_J98vYQJ733H8-9" edge="1">
          <mxGeometry width="50" height="50" relative="1" as="geometry">
            <mxPoint x="590" y="640" as="sourcePoint" />
            <mxPoint x="640" y="590" as="targetPoint" />
          </mxGeometry>
        </mxCell>
        <mxCell id="fFh8kSkxNthxMHdCvVMp-1" value="Telefon_No" style="ellipse;whiteSpace=wrap;html=1;align=center;" parent="1" vertex="1">
          <mxGeometry x="930" y="690" width="100" height="40" as="geometry" />
        </mxCell>
        <mxCell id="fFh8kSkxNthxMHdCvVMp-2" value="Email" style="ellipse;whiteSpace=wrap;html=1;align=center;" parent="1" vertex="1">
          <mxGeometry x="920" y="750" width="100" height="40" as="geometry" />
        </mxCell>
        <mxCell id="fFh8kSkxNthxMHdCvVMp-3" value="" style="endArrow=none;html=1;rounded=0;" parent="1" source="fFh8kSkxNthxMHdCvVMp-1" target="DEbMD9A_J98vYQJ733H8-8" edge="1">
          <mxGeometry width="50" height="50" relative="1" as="geometry">
            <mxPoint x="570" y="750" as="sourcePoint" />
            <mxPoint x="620" y="700" as="targetPoint" />
          </mxGeometry>
        </mxCell>
        <mxCell id="fFh8kSkxNthxMHdCvVMp-4" value="" style="endArrow=none;html=1;rounded=0;" parent="1" source="fFh8kSkxNthxMHdCvVMp-2" target="DEbMD9A_J98vYQJ733H8-8" edge="1">
          <mxGeometry width="50" height="50" relative="1" as="geometry">
            <mxPoint x="570" y="750" as="sourcePoint" />
            <mxPoint x="620" y="700" as="targetPoint" />
          </mxGeometry>
        </mxCell>
        <mxCell id="4HMvCbGRXmNRHkqdqu3J-1" value="Alani" style="ellipse;whiteSpace=wrap;html=1;align=center;" vertex="1" parent="1">
          <mxGeometry x="310" y="550" width="100" height="40" as="geometry" />
        </mxCell>
        <mxCell id="4HMvCbGRXmNRHkqdqu3J-2" value="" style="endArrow=none;html=1;rounded=0;" edge="1" parent="1" source="4HMvCbGRXmNRHkqdqu3J-1" target="DEbMD9A_J98vYQJ733H8-9">
          <mxGeometry width="50" height="50" relative="1" as="geometry">
            <mxPoint x="590" y="360" as="sourcePoint" />
            <mxPoint x="640" y="310" as="targetPoint" />
          </mxGeometry>
        </mxCell>
      </root>
    </mxGraphModel>
  </diagram>
  <diagram id="s-5lAO2uR0I49DLwP3gZ" name="Sayfa -2">
    <mxGraphModel dx="2074" dy="1196" grid="1" gridSize="10" guides="1" tooltips="1" connect="1" arrows="1" fold="1" page="1" pageScale="1" pageWidth="827" pageHeight="1169" math="0" shadow="0">
      <root>
        <mxCell id="0" />
        <mxCell id="1" parent="0" />
      </root>
    </mxGraphModel>
  </diagram>
</mxfile>
